<?xml version="1.0" standalone="no"?>
<!DOCTYPE svg PUBLIC "-//W3C//DTD SVG 20010904//EN"
 "http://www.w3.org/TR/2001/REC-SVG-20010904/DTD/svg10.dtd">
<svg version="1.0" xmlns="http://www.w3.org/2000/svg"
 width="217.000000pt" height="217.000000pt" viewBox="0 0 217.000000 217.000000"
 preserveAspectRatio="xMidYMid meet">
<metadata>
Created by potrace 1.11, written by Peter Selinger 2001-2013
</metadata>
<g transform="translate(0.000000,217.000000) scale(0.100000,-0.100000)"
fill="#000000" stroke="none">
<path d="M0 1085 l0 -1085 1085 0 1085 0 0 1085 0 1085 -1085 0 -1085 0 0
-1085z m1212 745 c121 -37 232 -139 279 -257 20 -49 24 -76 24 -174 l0 -116
-42 -84 c-30 -60 -72 -117 -144 -199 -109 -124 -161 -195 -202 -277 -15 -28
-31 -54 -36 -57 -17 -11 -37 5 -50 39 -20 57 -104 175 -201 284 -164 184 -195
251 -195 411 1 85 5 116 23 162 34 85 81 147 150 200 111 85 259 110 394 68z
m-453 -890 l52 -60 -148 0 c-104 0 -154 -4 -166 -12 -15 -12 -207 -399 -207
-419 0 -5 307 -9 790 -9 483 0 790 4 790 9 0 20 -192 407 -207 419 -12 8 -62
12 -166 12 l-148 0 52 60 52 60 142 0 c102 0 145 -4 153 -12 25 -32 313 -641
308 -654 -8 -21 -1944 -21 -1952 0 -5 13 283 622 308 654 8 8 51 12 153 12
l142 0 52 -60z"/>
<path d="M950 1693 c-77 -30 -87 -39 -72 -62 6 -12 12 -29 12 -38 0 -13 -7 -8
-21 15 -24 37 -30 38 -70 15 -33 -20 -36 -28 -42 -126 l-5 -68 44 -44 c49 -48
51 -55 28 -95 -15 -24 -15 -32 -2 -71 13 -39 20 -46 60 -59 59 -19 75 -33 82
-74 8 -44 50 -66 68 -36 17 27 38 25 38 -4 0 -61 34 -75 68 -29 l20 28 7 -28
c12 -45 39 -34 59 24 23 63 57 104 108 130 56 28 66 56 43 122 -18 53 -18 55
4 117 11 35 21 77 21 93 0 29 -39 106 -65 127 -19 15 -236 72 -295 76 -27 3
-63 -3 -90 -13z m338 -255 c9 -12 5 -54 -14 -130 -7 -31 -19 -36 -28 -13 -3 8
-14 15 -25 15 -25 0 -41 28 -41 69 0 25 7 36 33 51 37 23 60 25 75 8z m-269
-64 c14 -32 9 -39 -41 -52 -35 -10 -39 -8 -63 20 -31 36 -32 62 -4 82 20 13
26 13 58 -4 21 -10 43 -31 50 -46z m113 -123 c18 -44 15 -51 -19 -51 -20 0
-23 5 -23 38 0 64 20 70 42 13z"/>
</g>
</svg>
