<svg xmlns="http://www.w3.org/2000/svg" viewBox="0 0 412 297.62"><defs></defs><g id="Layer_2" data-name="Layer 2"><g id="Layer_1-2" data-name="Layer 1"><path class="cls-1" d="M12.5,136.61h387a12.5,12.5,0,0,1,12.5,12.5v1a12.5,12.5,0,0,1-12.5,12.5H12.5A12.5,12.5,0,0,1,0,150.11v-1A12.5,12.5,0,0,1,12.5,136.61Z"/><path class="cls-1" d="M233.11,2.69l175.23,137c3.13,2.44,2.21,8.83-2,14.27l-.62.79c-4.25,5.44-10.23,7.87-13.36,5.42L217.1,23.17c-5-4.32-7.25-12.56-1.1-18.56h0A12.08,12.08,0,0,1,233.11,2.69Z"/><path class="cls-1" d="M233.84,294.94,409.15,158c3.13-2.44,2.21-8.83-2-14.26l-.62-.79c-4.25-5.43-10.24-7.86-13.37-5.42L217.82,274.47c-5,4.32-7.25,12.55-1.1,18.55h0A12.09,12.09,0,0,0,233.84,294.94Z"/></g></g></svg>