<svg xmlns="http://www.w3.org/2000/svg" viewBox="0 0 412 297.62"><defs></defs><g id="Layer_2" data-name="Layer 2"><g id="Layer_1-2" data-name="Layer 1"><path class="cls-1" d="M399.5,161H12.5A12.5,12.5,0,0,1,0,148.51v-1A12.5,12.5,0,0,1,12.5,135h387a12.5,12.5,0,0,1,12.5,12.5v1A12.5,12.5,0,0,1,399.5,161Z"/><path class="cls-1" d="M178.89,294.93,3.66,157.92c-3.13-2.44-2.21-8.83,2-14.27l.62-.79c4.25-5.44,10.23-7.87,13.36-5.42l175.23,137c5,4.32,7.25,12.56,1.1,18.56h0A12.08,12.08,0,0,1,178.89,294.93Z"/><path class="cls-1" d="M178.16,2.68,2.85,139.59c-3.13,2.44-2.21,8.83,2,14.26l.62.79c4.25,5.43,10.24,7.86,13.37,5.42L194.18,23.15c5-4.32,7.25-12.55,1.1-18.55h0A12.09,12.09,0,0,0,178.16,2.68Z"/></g></g></svg>