<svg xmlns="http://www.w3.org/2000/svg" viewBox="0 0 297.62 412"><defs></defs><g id="Layer_2" data-name="Layer 2"><g id="Layer_1-2" data-name="Layer 1"><path class="cls-1" d="M161,12.5v387a12.5,12.5,0,0,1-12.5,12.5h-1A12.5,12.5,0,0,1,135,399.5V12.5A12.5,12.5,0,0,1,147.51,0h1A12.5,12.5,0,0,1,161,12.5Z"/><path class="cls-1" d="M294.93,233.11l-137,175.23c-2.44,3.13-8.83,2.21-14.27-2l-.79-.62c-5.44-4.25-7.87-10.23-5.42-13.36l137-175.23c4.32-5,12.56-7.25,18.56-1.1h0A12.08,12.08,0,0,1,294.93,233.11Z"/><path class="cls-1" d="M2.68,233.84,139.59,409.15c2.44,3.13,8.83,2.21,14.26-2l.79-.62c5.43-4.25,7.86-10.24,5.42-13.37L23.15,217.82c-4.32-5-12.55-7.25-18.55-1.1h0A12.09,12.09,0,0,0,2.68,233.84Z"/></g></g></svg>