<svg xmlns="http://www.w3.org/2000/svg" viewBox="0 0 297.62 412"><defs></defs><g id="Layer_2" data-name="Layer 2"><g id="Layer_1-2" data-name="Layer 1"><path class="cls-1" d="M136.61,399.5V12.5A12.5,12.5,0,0,1,149.11,0h1a12.5,12.5,0,0,1,12.5,12.5v387a12.5,12.5,0,0,1-12.5,12.5h-1A12.5,12.5,0,0,1,136.61,399.5Z"/><path class="cls-1" d="M2.69,178.89,139.7,3.66c2.44-3.13,8.83-2.21,14.27,2l.79.62c5.44,4.25,7.87,10.23,5.42,13.36L23.17,194.9c-4.32,5-12.56,7.25-18.56,1.1h0A12.08,12.08,0,0,1,2.69,178.89Z"/><path class="cls-1" d="M294.94,178.16,158,2.85c-2.44-3.13-8.83-2.21-14.26,2l-.79.62c-5.43,4.25-7.86,10.24-5.42,13.37L274.47,194.18c4.32,5,12.55,7.25,18.55,1.1h0A12.09,12.09,0,0,0,294.94,178.16Z"/></g></g></svg>