<svg xmlns="http://www.w3.org/2000/svg" xmlns:xlink="http://www.w3.org/1999/xlink" viewBox="0 0 81.67 84.82"><defs><clipPath id="clip-path" transform="translate(0 -1.18)"><rect id="SVGID" class="cls-1" width="81.67" height="87.92"/></clipPath></defs><g id="Layer_2" data-name="Layer 2"><g id="Layer_1-2" data-name="Layer 1"><g class="cls-2"><path d="M44.84,33.2h-9.6V23.59a1.6,1.6,0,0,0-3.21,0V33.2H22.42a1.6,1.6,0,1,0,0,3.21H32V46a1.6,1.6,0,0,0,3.21,0v-9.6h9.6a1.6,1.6,0,1,0,0-3.21Zm0,0" transform="translate(0 -1.18)"/><path d="M81.23,83.29,57.43,58.54a33.67,33.67,0,1,0-2.37,2.16L78.92,85.51a1.58,1.58,0,0,0,1.16.48,1.6,1.6,0,0,0,1.16-2.7Zm-78-48.48A30.43,30.43,0,1,1,33.63,65.23,30.45,30.45,0,0,1,3.21,34.81Zm0,0" transform="translate(0 -1.18)"/></g></g></g></svg>