<svg version="1.1" xmlns="http://www.w3.org/2000/svg" xmlns:xlink="http://www.w3.org/1999/xlink" x="0px" y="0px"
	 viewBox="0 0 140.6 132" style="enable-background:new 0 0 140.6 132;" xml:space="preserve">
<path d="M72.5,0.1c3.5,0.4,10.2,1.7,14,3.5c16.6,7.9,23.7,27,16.4,43.8c-6.9,16-17.1,30-28.4,43.1c-2.4,2.8-5,3.7-7.9,0.3
	c-10.9-13-21.1-26.5-28.1-42.2C28.9,27.2,40.9,4.6,64.2,0.4c0.8-0.1,4.1-0.4,5-0.4C71.4,0,72.2,0.1,72.5,0.1z M70.5,84.2
	c10.2-12,18.8-24.4,25.3-38.1c5.8-12.3,3.1-25.1-7.1-33.3c-10.3-8.3-25.6-8.5-36.1-0.3c-10.6,8.1-13.6,20.5-7.9,32.9
	C51.1,59.3,60,71.7,70.5,84.2z M70.5,23.4c-6,0-10.9,4.5-10.9,9.9c0,5.3,5.2,10.2,10.8,10.2c5.6,0,10.3-4.5,10.4-9.9
	C81,27.8,76.5,23.4,70.5,23.4z M38,114.7l32.3,13l2.2-5.6l-34.7-14l-29,13.2l14.6-57.2c4.8,0,15.3,0,16.5,0l-0.1-6
	c-1.2,0-12.8,0-18.7,0l-2.3,0L0,132L38,114.7z M121.7,58.2l-2.3,0c-6,0-17.5,0-18.7,0l-0.1,6c1.2,0,11.8,0,16.5,0l14.6,57.2
	l-29-13.2l-34.7,14l2.2,5.6l32.3-13l38,17.3L121.7,58.2z"/>
</svg>
