<svg version="1.1" xmlns="http://www.w3.org/2000/svg" xmlns:xlink="http://www.w3.org/1999/xlink" x="0px" y="0px"
	 viewBox="0 0 168.5 224.9" style="enable-background:new 0 0 168.5 224.9;" xml:space="preserve">
<g>
	<path d="M84.7,224.9c-0.3,0-0.7,0-1,0c-1.1-1.4-2.2-2.8-3.4-4.2c-13.2-15.4-27-30.4-39.6-46.3c-16.1-20.3-29.9-42.1-37.3-67.3
		C-9.3,64.4,14.6,18.5,56.9,4.6c6.1-2,16.4-4.2,20.5-4.4c4.3-0.3,8.1-0.3,12.4,0c1.4,0.1,4.2,0.3,5.3,0.4
		c17.3,2.6,33.6,9.5,46.1,21.8c27,26.4,34.1,57.7,20.9,93.2c-10.4,28-28,51.7-46.9,74.4C105.3,201.9,94.9,213.3,84.7,224.9z
		 M115.8,79.1c0-17.5-14.3-32-31.6-32c-17.2,0-31.5,14.3-31.6,31.5c-0.1,17.6,13.9,32,31.4,32.2C101.3,111,115.8,96.6,115.8,79.1z"
		/>
</g>
</svg>
