<svg version="1.1" xmlns="http://www.w3.org/2000/svg" xmlns:xlink="http://www.w3.org/1999/xlink" x="0px" y="0px"
	 viewBox="0 0 140.4 224.3" style="enable-background:new 0 0 140.4 224.3;" xml:space="preserve">
<g>
	<path d="M79,0.5c15.9,2.3,22.9,6.1,30.6,11.3c20.3,13.6,30.6,33.2,30.7,57.9c0.1,28,0,56,0,84c0,37.1-28.3,67.9-64.8,70.5
		c-36.9,2.6-69.2-23.3-74.7-60c-0.5-3.4-0.8-6.9-0.8-10.4c-0.1-27.3,0-54.6,0-82c0-35.3,21-61.3,55.1-70.4C57.6,0.7,63.7,0,67,0
		C67.5,0,74.2,0,79,0.5z M14,112.2c0,13.7,0,27.3,0,41c0,31.4,24.4,56.7,54.9,57c31.9,0.3,57.3-24,57.7-55.8c0.4-28.5,0.4-57,0-85.4
		c-0.4-30.3-24.7-54.7-54.5-55.7c-31.5-1.1-58,24.4-58.1,55.9C13.9,83.5,14,97.8,14,112.2z"/>
	<path d="M79,70.2c0,5.7,0.1,11.3,0,17c-0.1,4.8-3.1,8-7.1,7.9C68,95,65.1,91.9,65,87.4c-0.1-11.3-0.1-22.7,0-34
		c0-4.5,3.1-7.4,7.1-7.3c4,0.1,6.7,3,6.8,7.6C79.1,59.2,79,64.7,79,70.2z"/>
</g>
</svg>
