<svg version="1.1" xmlns="http://www.w3.org/2000/svg" xmlns:xlink="http://www.w3.org/1999/xlink" x="0px" y="0px"
	 viewBox="0 0 69.6 56.4" style="enable-background:new 0 0 69.6 56.4;" xml:space="preserve">
<path d="M34.7,0.5C19.5,0.5,7.2,12.9,7.2,28c0,11.2,6.7,20.8,16.3,25.1c-0.2-2.1-0.3-5.5,0.4-8.4c0.5-2.3,3.6-15.7,3.6-15.7
	s-0.9-1.3-0.9-3.9c0-4.1,2.4-7,5.5-7c2.6,0,3.8,1.6,3.8,3.9c0,2.5-1.7,6.4-2.5,9.9c-0.7,3,1.5,5.1,4.5,5.1c5.4,0,9-6.5,9-14.6
	c0-6.1-4.2-10.8-11.8-10.8c-8.6,0-13.7,5.8-13.7,13.8c0,2.4,0.7,3.8,1.9,5.1c0.5,0.6,0.6,0.9,0.4,1.6c-0.1,0.5-0.7,1.7-0.9,2.2
	c-0.2,0.7-0.8,1-1.4,0.7c-4-1.6-5.8-5.9-5.8-10.7c0-7.9,6.8-17.4,20.3-17.4c10.8,0,18,7.7,18,16c0,10.9-6.2,18.7-15.3,18.7
	c-3.1,0-6-1.2-6.9-3c0,0-1.7,6.4-2,7.7c-0.8,2.9-2.7,5.9-4,7.6c2.8,1,5.9,1.5,9.1,1.5c15.2,0,27.5-12.3,27.5-27.5
	C62.3,12.9,49.9,0.5,34.7,0.5z"/>
</svg>
