<svg version="1.1" xmlns="http://www.w3.org/2000/svg" xmlns:xlink="http://www.w3.org/1999/xlink" x="0px" y="0px"
	 viewBox="0 0 69.6 56.4" style="enable-background:new 0 0 69.6 56.4;" xml:space="preserve">
<path d="M62.5,14.1v1.8c0,6.6-1.5,12.8-4.5,18.9c-3,6.1-7.7,11.2-14.1,15.4c-6.3,4.2-13.6,6.3-21.9,6.3c-8.1,0-15.4-2.1-21.9-6.4
	c0.7,0.1,1.9,0.1,3.5,0.1c6.7,0,12.5-2,17.7-6c-3.1-0.1-5.9-1-8.3-2.9c-2.4-1.8-4.1-4.2-5-7.1c0.5,0.2,1.4,0.3,2.6,0.3
	c1.3,0,2.6-0.1,3.8-0.5c-3.3-0.7-6.1-2.4-8.2-5c-2.1-2.6-3.2-5.6-3.2-9.2c1.8,1,3.9,1.6,6.3,1.8C5,18.7,2.9,14.7,2.9,9.7
	c0-2.4,0.6-4.8,2-7.1c7.8,9.5,17.6,14.4,29.5,14.8c-0.3-0.9-0.4-2-0.4-3.2c0-3.9,1.4-7.3,4.2-10.1C40.8,1.4,44.2,0,48.2,0
	c4.1,0,7.6,1.5,10.3,4.4c3-0.6,6-1.7,9.1-3.3c-1,3.3-3.1,5.9-6.2,7.9c2.8-0.4,5.5-1.2,8.2-2.3C67.8,9.4,65.4,11.9,62.5,14.1z"/>
</svg>
